<svg width="179" height="30" viewBox="0 0 179 30" fill="none" xmlns="http://www.w3.org/2000/svg">
<path fill-rule="evenodd" clip-rule="evenodd" d="M10.1386 15.0851V11.8326L0.0191504 15.1745H-1.52588e-05V18.5122H0.0191504L10.1386 21.8541V18.5973L4.94952 16.8348L10.1386 15.0809V15.0851Z" fill="#F7DD43"/>
<path fill-rule="evenodd" clip-rule="evenodd" d="M68.752 21.6924V18.4399L73.9363 16.6902L68.752 14.9405V11.688L78.8571 15.0299H78.8811V18.3718H78.8571L68.752 21.6966V21.6924ZM64.411 7.08594L58.4697 24.0338H61.9961L67.9375 7.08594H64.411Z" fill="#F7DD43"/>
<path fill-rule="evenodd" clip-rule="evenodd" d="M25.0064 11.3857C26.0126 12.3648 26.5396 13.659 26.4773 14.983V22.2032H22.9509V15.6471C22.994 14.9149 22.7305 14.1997 22.213 13.6292C21.7243 13.1226 21.0008 12.8416 20.2485 12.8714C18.0397 12.8714 16.9328 14.2337 16.9328 16.9541V22.2032H13.4064V10.3512H16.9328V11.4197C18.054 10.4533 19.5729 9.93822 21.1349 9.99782C22.5915 9.94247 24.0002 10.4491 25.0064 11.3857V11.3857Z" fill="#F7DD43"/>
<path fill-rule="evenodd" clip-rule="evenodd" d="M30.9717 5.25531V22.2032H34.4982V5.25531H30.9717Z" fill="#F7DD43"/>
<path fill-rule="evenodd" clip-rule="evenodd" d="M54.4401 22.2032H51.4981L48.6137 15.2214L45.7005 22.2032H42.7586L37.8139 10.3299H41.5847L44.3637 17.4309L47.229 10.3299H49.9841L52.8493 17.4522L55.6283 10.3299H59.3992L54.4496 22.2032H54.4401Z" fill="#F7DD43"/>
<path d="M98.0317 29.9968C94.4183 29.9968 90.622 29.3885 87.6467 27.9233V2.07347C90.5754 0.649751 94.3717 0 98.0317 0C101.692 0 105.398 0.608345 108.323 2.07347V11.9917H100.957V5.24259C100.089 4.91772 99.0354 4.79669 97.9851 4.79669C96.9347 4.79669 95.9704 4.91772 95.0563 5.24259V24.7542C95.9238 25.0791 96.9312 25.2001 97.9851 25.2001C99.039 25.2001 100.043 25.0791 100.957 24.7542V18.0083H108.323V27.9265C105.441 29.3503 101.645 29.9586 98.0317 30V29.9968Z" fill="#F7DD43"/>
<path d="M122.139 29.9968C118.25 29.9968 114.5 29.2643 111.525 27.7609V2.1945C114.453 0.732562 118.207 0 122.139 0C126.071 0 129.731 0.691156 132.66 2.1945V27.7609C129.778 29.2643 125.982 29.9554 122.139 29.9968ZM125.297 5.32541C124.43 5.00053 123.376 4.83809 122.096 4.83809C120.816 4.83809 119.809 5.00053 118.938 5.32541V24.6332C119.805 24.9995 120.859 25.1619 122.096 25.1619C123.333 25.1619 124.383 24.9995 125.297 24.6332V5.32541Z" fill="#F7DD43"/>
<path d="M145.515 19.0211H143.547V29.6305H136.091V0.366281H145.515C150 0.366281 153.384 1.17847 156.036 2.84425V16.5432C153.43 18.1707 149.996 19.0211 145.515 19.0211ZM148.627 5.40503C147.942 4.95912 147.024 4.75528 145.468 4.75528H143.454V14.6321H145.468C146.978 14.6321 147.892 14.4283 148.627 14.0238V5.40503Z" fill="#F7DD43"/>
<path d="M171.633 29.6305V19.0211H166.145V29.6305H158.736V2.1531C161.435 0.729377 165.231 0 168.891 0C172.551 0 176.301 0.732562 179 2.1531V29.6305H171.633ZM171.633 5.08016C170.855 4.75528 169.895 4.59284 168.887 4.59284C167.88 4.59284 166.919 4.75528 166.142 5.08016V14.3869H171.63V5.08016H171.633Z" fill="#F7DD43"/>
</svg>
